<?xml version="1.0" encoding="utf-8"?>
<?xml-stylesheet type="text/xsl" href="rss1.xsl"?>
<rss version="2.0" xmlns:atom="http://www.w3.org/2005/Atom" xmlns:content="http://purl.org/rss/1.0/modules/content/" xmlns:dc="http://purl.org/dc/elements/1.1/" xmlns:media="http://search.yahoo.com/mrss/">
<channel>
 <title>Getty</title>
 <link>http://www.gettyimg.com/</link>
 <atom:link href="http://www.gettyimg.com/" rel="self" type="application/rss+xml" />

 
                <item>
                <title><![CDATA[【Singles (lossy)】Dolby Atmos - Anitta - Medicina (2018) [E-AC3-JOC | 16bits/48kHz | 5.1 | 768kbits]]]></title>
                <link><![CDATA[https://sharemania.us/threads/anitta-medicina-2018-e-ac3-joc-16bits-48khz-5-1-768kbits.243105/]]></link>
                <description><![CDATA[<article>
<blockquote class="messageText SelectQuoteContainer ugc baseHtml">
<div style="text-align: center"><img src="https://thumbs2.imgbox.com/4c/05/Ge3qpQQl_t.jpg" class="bbCodeImage LbImage" alt="[​IMG]" data-url="https://thumbs2.imgbox.com/4c/05/Ge3qpQQl_t.jpg" style=""><br>
<br>
<b>01. Medicina<br>
<br>
Source</b><br>
Apple Music<br>
<br>
<div class="bbCodeBlock bbCodeVfcHH HiddenContent">
<div class="attribution type">Hidden Content:</div>
<blockquote>You must reply before you can see the hidden data contained here.</blockquote>
</div></div>
<div class="messageTextEndMarker">&nbsp;</div>
</blockquote>
</article>]]></description>
                <author><![CDATA[thekiller]]></author>
                </item>

                
                <item>
                <title><![CDATA[【Albums (lossless)】ALAC - Anitta - Funk Generation | 24bit/44.1kHz | Apple Music Alac |]]></title>
                <link><![CDATA[https://sharemania.us/threads/anitta-funk-generation-24bit-44-1khz-apple-music-alac.243108/]]></link>
                <description><![CDATA[<article>
<blockquote class="messageText SelectQuoteContainer ugc baseHtml">
<div style="text-align: center"><img src="https://i.ibb.co/Dk4BCNK/ane.gif" class="bbCodeImage LbImage" alt="[​IMG]" data-url="https://i.ibb.co/Dk4BCNK/ane.gif" style=""><br>
<br>
<img src="https://i.postimg.cc/MGmvZnxz/apple-music-hifi-Howpple-Apple-Music-mejor-calidad-modified.png" class="bbCodeImage LbImage" alt="[​IMG]" data-url="https://i.postimg.cc/MGmvZnxz/apple-music-hifi-Howpple-Apple-Music-mejor-calidad-modified.png" style=""><br>
​</div>
<div class="ToggleTriggerAnchor bbCodeSpoilerContainer">
<button type="button" class="button bbCodeSpoilerButton ToggleTrigger Tooltip JsOnly" data-target="> .SpoilerTarget"><span>Spoiler: <span class="SpoilerTitle">ALAC</span></span></button>
<div class="SpoilerTarget bbCodeSpoilerText">
<div class="bbCodeBlock bbCodeCode">
<div class="type">Code:</div>
<pre>General
Complete name                            : 01. Lose Ya Breath.m4a
Format                                   : MPEG-4
Format profile                           : Apple audio with iTunes info
Codec ID                                 : M4A  (M4A /mp42/isom)
File size                                : 27.1 MiB
Duration                                 : 2 min 16 s
Overall bit rate mode                    : Variable
Overall bit rate                         : 1 669 kb/s
Album                                    : Funk Generation
Album/Performer                          : Anitta
Track name                               : Lose Ya Breath
Track name/Position                      : 1
Track name/Total                         : 15
Performer                                : Anitta
Composer                                 : Larissa de Macedo Machado, Laudz, Zegon, Samantha María Camara, Taylor Ross, Jacob Gago &amp; kobe
Genre                                    : Latin
Recorded date                            : 2024
Encoded date                             : 2024-04-26 06:05:38 UTC
Tagged date                              : 2024-04-26 06:05:38 UTC
ISRC                                     : USUG12402054
Copyright                                : A Republic Records and Universal Music Latin Entertainment release.; ℗ 2024 Floresta Records Inc., under exclusive license to Republic Records, a division of UMG Recordings, Inc
LABEL                                    : Anitta
UPC                                      : 00602465659108

Audio
ID                                       : 1
Format                                   : ALAC
Codec ID                                 : alac
Codec ID/Info                            : Apple Lossless Audio Codec
Duration                                 : 2 min 16 s
Duration_LastFrame                       : -54 ms
Bit rate mode                            : Variable
Bit rate                                 : 1 669 kb/s
Nominal bit rate                         : 2 117 kb/s
Channel(s)                               : 2 channels
Sampling rate                            : 44.1 kHz
Bit depth                                : 24 bits
Stream size                              : 27.1 MiB (100%)
Title                                    : Core Media Audio
Encoded date                             : 2024-04-26 06:05:38 UTC
Tagged date                              : 2024-04-26 06:05:38 UTC</pre>
</div><div style="text-align: center">​</div></div>
</div><br>
<b> <span style="color: #b3b300">TRACKLIST</span></b><br>
1 Lose Ya Breath - 02:16<br>
2 Grip - 01:51<br>
3 Funk Rave - 02:27<br>
4 Fria - 02:07<br>
5 Meme - 02:30<br>
6 Love In Common - 02:30<br>
7 Aceita - 02:08<br>
8 Double Team - 03:52<br>
9 Savage Funk - 01:23<br>
10 Joga Pra Lua - 02:05<br>
11 Cria De Favela - 02:57<br>
12 Puta Cara - 02:02<br>
13 Sabana - 01:54<br>
14 Ahi - 02:38<br>
15 Mil Veces - 02:34<br>
<br>
<div style="text-align: center"><b>Released 26 April 2024</b><br>
A Republic Records and Universal Music Latin Entertainment release.; ℗ 2024 Floresta Records Inc., under exclusive license to Republic Records, a division of UMG Recordings, Inc<br>
<br>
<div class="bbCodeBlock bbCodeVfcHH HiddenContent">
<div class="attribution type">Hidden Content:</div>
<blockquote>You must reply before you can see the hidden data contained here.</blockquote>
</div></div>
<div class="messageTextEndMarker">&nbsp;</div>
</blockquote>
</article>]]></description>
                <author><![CDATA[fstambuk]]></author>
                </item>

                
                <item>
                <title><![CDATA[【Music Videos】fat joe doncartagena]]></title>
                <link><![CDATA[https://sharemania.us/threads/fat-joe-doncartagena.243106/]]></link>
                <description><![CDATA[<article>
<blockquote class="messageText SelectQuoteContainer ugc baseHtml">
fat joe doncartagena zip flac
<div class="messageTextEndMarker">&nbsp;</div>
</blockquote>
</article>]]></description>
                <author><![CDATA[sia72]]></author>
                </item>

                
                <item>
                <title><![CDATA[【Singles (lossless)】ALAC - Kerli - The Art of Being Alone | 16bit/44.1kHz | Apple Alac|]]></title>
                <link><![CDATA[https://sharemania.us/threads/kerli-the-art-of-being-alone-16bit-44-1khz-apple-alac.243104/]]></link>
                <description><![CDATA[<article>
<blockquote class="messageText SelectQuoteContainer ugc baseHtml">
<div style="text-align: center"><img src="https://a5.mzstatic.com/us/r1000/0/Music211/v4/ff/04/72/ff0472ba-4e98-ee00-10fd-0979ce760493/723277486468.jpg" class="bbCodeImage LbImage" alt="[​IMG]" data-url="https://a5.mzstatic.com/us/r1000/0/Music211/v4/ff/04/72/ff0472ba-4e98-ee00-10fd-0979ce760493/723277486468.jpg" style=""><br>
<br>
<img src="https://i.postimg.cc/MGmvZnxz/apple-music-hifi-Howpple-Apple-Music-mejor-calidad-modified.png" class="bbCodeImage LbImage" alt="[​IMG]" data-url="https://i.postimg.cc/MGmvZnxz/apple-music-hifi-Howpple-Apple-Music-mejor-calidad-modified.png" style=""><br>
​</div>
<div class="ToggleTriggerAnchor bbCodeSpoilerContainer">
<button type="button" class="button bbCodeSpoilerButton ToggleTrigger Tooltip JsOnly" data-target="> .SpoilerTarget"><span>Spoiler: <span class="SpoilerTitle">ALAC</span></span></button>
<div class="SpoilerTarget bbCodeSpoilerText">
<div class="bbCodeBlock bbCodeCode">
<div class="type">Code:</div>
<pre>General
Complete name                            : 01. The Art of Being Alone.m4a
Format                                   : MPEG-4
Format profile                           : Apple audio with iTunes info
Codec ID                                 : M4A  (M4A /mp42/isom)
File size                                : 22.4 MiB
Duration                                 : 3 min 26 s
Overall bit rate mode                    : Variable
Overall bit rate                         : 908 kb/s
Album                                    : The Art of Being Alone - Single
Album/Performer                          : Kerli
Track name                               : The Art of Being Alone
Track name/Position                      : 1
Track name/Total                         : 2
Performer                                : Kerli
Composer                                 : Andrew Burns &amp; Kerli Koiv
Genre                                    : Pop
Recorded date                            : 2024
Encoded date                             : 2024-04-12 17:47:49 UTC
Tagged date                              : 2024-04-12 17:47:49 UTC
ISRC                                     : CA5KR2449046
Copyright                                : ℗ 2024 Tiny Cute Monster / Create Music Group Inc.
LABEL                                    : Tiny Cute Monster
UPC                                      : 723277486468

Audio
ID                                       : 1
Format                                   : ALAC
Codec ID                                 : alac
Codec ID/Info                            : Apple Lossless Audio Codec
Duration                                 : 3 min 26 s
Duration_LastFrame                       : -3 ms
Bit rate mode                            : Variable
Bit rate                                 : 908 kb/s
Nominal bit rate                         : 1 411 kb/s
Channel(s)                               : 2 channels
Sampling rate                            : 44.1 kHz
Bit depth                                : 16 bits
Stream size                              : 22.4 MiB (100%)
Title                                    : Core Media Audio
Encoded date                             : 2024-04-12 17:47:49 UTC
Tagged date                              : 2024-04-12 17:47:49 UTC</pre>
</div><div style="text-align: center">​</div></div>
</div><div style="text-align: center"><br>
​</div><b>1-</b> The Art of Being Alone - 03:27<br>
<b>2-</b> Search + Destroy - 02:44<br>
<div style="text-align: center"><br>
Released 26 April 2024<br>
℗ 2024 Tiny Cute Monster / Create Music Group Inc.<br>
<div class="bbCodeBlock bbCodeVfcHH HiddenContent">
<div class="attribution type">Hidden Content:</div>
<blockquote>You must reply before you can see the hidden data contained here.</blockquote>
</div></div>
<div class="messageTextEndMarker">&nbsp;</div>
</blockquote>
</article>]]></description>
                <author><![CDATA[fstambuk]]></author>
                </item>

                
                <item>
                <title><![CDATA[【Albums (lossless)】FLAC - fat joe]]></title>
                <link><![CDATA[https://sharemania.us/threads/fat-joe.243107/]]></link>
                <description><![CDATA[<article>
<blockquote class="messageText SelectQuoteContainer ugc baseHtml">
Thanks
<div class="messageTextEndMarker">&nbsp;</div>
</blockquote>
</article>]]></description>
                <author><![CDATA[sia72]]></author>
                </item>

                </channel></rss>